<svg viewBox="0 0 1280 800" xmlns="http://www.w3.org/2000/svg" font-family="monospace">
  <!-- Browser chrome -->
  <rect width="1280" height="800" fill="#1a1a2e"/>
  <rect x="0" y="0" width="1280" height="36" fill="#0f0f1a"/>
  <rect x="160" y="6" width="800" height="24" rx="12" fill="#1e1e2e"/>
  <text x="560" y="23" fill="#6b7280" font-size="12" text-anchor="middle">trade.multibank.io</text>
  <text x="40" y="23" fill="#4b5563" font-size="16">◀</text>
  <text x="70" y="23" fill="#4b5563" font-size="16">▶</text>

  <!-- Nav bar -->
  <rect x="0" y="36" width="1280" height="56" fill="#0d1117"/>
  <rect x="20" y="48" width="120" height="32" rx="4" fill="#161b27"/>
  <text x="80" y="68" fill="#ffffff" font-size="14" font-weight="bold" text-anchor="middle">MultiBank</text>
  <text x="250" y="68" fill="#d1d5db" font-size="13">Trade</text>
  <text x="340" y="68" fill="#d1d5db" font-size="13">Markets</text>
  <text x="440" y="68" fill="#d1d5db" font-size="13">Download</text>
  <rect x="1160" y="48" width="100" height="32" rx="6" fill="#6366f1"/>
  <text x="1210" y="68" fill="#fff" font-size="13" text-anchor="middle">Sign Up</text>

  <!-- Page -->
  <rect x="0" y="92" width="1280" height="708" fill="#0f172a"/>
  <rect x="20" y="110" width="1240" height="580" rx="8" fill="#1e293b"/>

  <!-- Tabs -->
  <rect x="40" y="130" width="1200" height="44" rx="4" fill="#0f172a"/>
  <rect x="50" y="135" width="80" height="34" rx="4" fill="#6366f1"/>
  <text x="90" y="157" fill="#fff" font-size="13" text-anchor="middle">All</text>
  <rect x="140" y="135" width="90" height="34" rx="4" fill="#1e293b"/>
  <text x="185" y="157" fill="#94a3b8" font-size="13" text-anchor="middle">Favorites</text>
  <rect x="240" y="135" width="80" height="34" rx="4" fill="#1e293b"/>
  <text x="280" y="157" fill="#94a3b8" font-size="13" text-anchor="middle">BTC</text>
  <rect x="330" y="135" width="80" height="34" rx="4" fill="#1e293b"/>
  <text x="370" y="157" fill="#94a3b8" font-size="13" text-anchor="middle">ETH</text>

  <!-- Table -->
  <rect x="40" y="182" width="1200" height="32" fill="#0f172a"/>
  <text x="60" y="202" fill="#64748b" font-size="12">Pair</text>
  <text x="400" y="202" fill="#64748b" font-size="12">Last Price</text>
  <text x="600" y="202" fill="#64748b" font-size="12">24h Change</text>
  <text x="800" y="202" fill="#64748b" font-size="12">Volume</text>

  <!-- 10 rows of pair data -->
  <rect x="40" y="214" width="1200" height="36" fill="#1e293b"/>
  <text x="60" y="237" fill="#f1f5f9" font-size="13" font-weight="bold">BTC/USDT</text><text x="400" y="237" fill="#f1f5f9" font-size="13">$42,815.30</text><text x="600" y="237" fill="#22c55e" font-size="13">+2.41%</text>
  <rect x="40" y="250" width="1200" height="36" fill="#172033"/>
  <text x="60" y="273" fill="#f1f5f9" font-size="13" font-weight="bold">ETH/USDT</text><text x="400" y="273" fill="#f1f5f9" font-size="13">$2,614.80</text><text x="600" y="273" fill="#ef4444" font-size="13">-0.87%</text>
  <rect x="40" y="286" width="1200" height="36" fill="#1e293b"/>
  <text x="60" y="309" fill="#f1f5f9" font-size="13" font-weight="bold">BNB/USDT</text><text x="400" y="309" fill="#f1f5f9" font-size="13">$312.45</text><text x="600" y="309" fill="#22c55e" font-size="13">+1.18%</text>
  <rect x="40" y="322" width="1200" height="36" fill="#172033"/>
  <text x="60" y="345" fill="#f1f5f9" font-size="13" font-weight="bold">XRP/USDT</text><text x="400" y="345" fill="#f1f5f9" font-size="13">$0.6124</text><text x="600" y="345" fill="#22c55e" font-size="13">+3.27%</text>
  <rect x="40" y="358" width="1200" height="36" fill="#1e293b"/>
  <text x="60" y="381" fill="#f1f5f9" font-size="13" font-weight="bold">SOL/USDT</text><text x="400" y="381" fill="#f1f5f9" font-size="13">$98.12</text><text x="600" y="381" fill="#22c55e" font-size="13">+5.03%</text>
  <rect x="40" y="394" width="1200" height="36" fill="#172033"/>
  <text x="60" y="417" fill="#f1f5f9" font-size="13" font-weight="bold">ADA/USDT</text><text x="400" y="417" fill="#f1f5f9" font-size="13">$0.5831</text><text x="600" y="417" fill="#ef4444" font-size="13">-1.24%</text>
  <rect x="40" y="430" width="1200" height="36" fill="#1e293b"/>
  <text x="60" y="453" fill="#f1f5f9" font-size="13" font-weight="bold">DOGE/USDT</text><text x="400" y="453" fill="#f1f5f9" font-size="13">$0.0892</text><text x="600" y="453" fill="#22c55e" font-size="13">+0.67%</text>
  <rect x="40" y="466" width="1200" height="36" fill="#172033"/>
  <text x="60" y="489" fill="#f1f5f9" font-size="13" font-weight="bold">MATIC/USDT</text><text x="400" y="489" fill="#f1f5f9" font-size="13">$0.9244</text><text x="600" y="489" fill="#ef4444" font-size="13">-2.11%</text>
  <rect x="40" y="502" width="1200" height="36" fill="#1e293b"/>
  <text x="60" y="525" fill="#f1f5f9" font-size="13" font-weight="bold">DOT/USDT</text><text x="400" y="525" fill="#f1f5f9" font-size="13">$8.742</text><text x="600" y="525" fill="#22c55e" font-size="13">+1.95%</text>
  <rect x="40" y="538" width="1200" height="36" fill="#172033"/>
  <text x="60" y="561" fill="#f1f5f9" font-size="13" font-weight="bold">LINK/USDT</text><text x="400" y="561" fill="#f1f5f9" font-size="13">$14.31</text><text x="600" y="561" fill="#22c55e" font-size="13">+4.17%</text>

  <!-- Selenium highlight border on the table -->
  <rect x="38" y="212" width="1204" height="365" rx="2" fill="none" stroke="#22c55e" stroke-width="2"/>

  <!-- Pass banner -->
  <rect x="0" y="690" width="1280" height="110" fill="#0a1a0a" opacity="0.97"/>
  <rect x="0" y="690" width="4" height="110" fill="#22c55e"/>
  <text x="24" y="716" fill="#22c55e" font-size="13" font-weight="bold">✔ ASSERTION PASSED — testTradingPairsListed</text>
  <text x="24" y="738" fill="#86efac" font-size="12">Found 47 trading pair rows (min expected: 5) — PASS</text>
  <text x="24" y="758" fill="#94a3b8" font-size="11">  assertThat(count).isGreaterThanOrEqualTo(5)  →  47 ≥ 5  ✓</text>
  <text x="24" y="778" fill="#94a3b8" font-size="11">  Duration: 5.88s  |  Thread: pool-1-thread-1</text>
  <text x="24" y="795" fill="#6b7280" font-size="10">  at TradingTest.testTradingPairsListed(TradingTest.java:74)  |  Chrome 121  |  2024-01-15 09:15:31</text>

  <text x="1260" y="795" fill="#374151" font-size="10" text-anchor="end">testTradingPairsListed_PASS_20240115_091531.png</text>
</svg>
